<?xml version="1.0" standalone="no"?><svg xmlns="http://www.w3.org/2000/svg" viewBox="0 0 1440 320"><path fill="#32012f" fill-opacity="1" d="M0,288L21.8,293.3C43.6,299,87,309,131,288C174.5,267,218,213,262,192C305.5,171,349,181,393,170.7C436.4,160,480,128,524,117.3C567.3,107,611,117,655,112C698.2,107,742,85,785,85.3C829.1,85,873,107,916,133.3C960,160,1004,192,1047,197.3C1090.9,203,1135,181,1178,149.3C1221.8,117,1265,75,1309,80C1352.7,85,1396,139,1418,165.3L1440,192L1440,0L1418.2,0C1396.4,0,1353,0,1309,0C1265.5,0,1222,0,1178,0C1134.5,0,1091,0,1047,0C1003.6,0,960,0,916,0C872.7,0,829,0,785,0C741.8,0,698,0,655,0C610.9,0,567,0,524,0C480,0,436,0,393,0C349.1,0,305,0,262,0C218.2,0,175,0,131,0C87.3,0,44,0,22,0L0,0Z"></path></svg>